<svg xmlns="http://www.w3.org/2000/svg" viewBox="0 0 850.39 178.56"><defs><style>.cls-1{fill:none;}.cls-2{fill:#fff;}</style></defs><title>Ebene 1</title><g id="Ebene_2" data-name="Ebene 2"><g id="Ebene_1-2" data-name="Ebene 1"><polygon class="cls-1" points="140.81 75.48 103.08 37.75 140.81 0.02 140.81 75.48"/><polygon class="cls-2" points="103.08 37.75 65.35 0.02 140.81 0.02 103.08 37.75"/><polygon class="cls-2" points="140.81 75.48 103.08 37.75 65.35 75.48 140.81 75.48"/><polygon class="cls-1" points="103.08 37.75 65.35 0.02 65.35 75.48 103.08 37.75"/><polygon class="cls-2" points="140.81 75.48 154.62 127.02 103.08 140.83 140.81 75.48"/><polygon class="cls-1" points="154.62 127.02 168.43 178.56 103.08 140.83 154.62 127.02"/><polygon class="cls-1" points="140.81 75.48 154.62 127.02 206.16 113.21 140.81 75.48"/><polygon class="cls-2" points="154.62 127.02 168.43 178.56 206.16 113.21 154.62 127.02"/><polygon class="cls-2" points="0 113.21 51.54 127.02 37.73 178.56 0 113.21"/><polygon class="cls-1" points="51.54 127.02 103.08 140.83 37.73 178.56 51.54 127.02"/><polygon class="cls-1" points="0 113.21 51.54 127.02 65.35 75.48 0 113.21"/><polygon class="cls-2" points="51.54 127.02 103.08 140.83 65.35 75.48 51.54 127.02"/><polygon class="cls-2" points="65.35 0.02 0 113.21 65.35 75.48 65.35 0.02"/><polygon class="cls-2" points="140.81 0.02 140.81 75.48 206.16 113.21 140.81 0.02"/><polygon class="cls-2" points="103.08 140.83 168.43 178.56 37.73 178.56 103.08 140.83"/><polygon class="cls-2" points="281.69 37.96 281.69 178.47 330.3 178.47 330.3 37.96 410.95 37.96 410.95 0 201.04 0 201.04 37.96 281.69 37.96"/><path class="cls-2" d="M467.12,139.77V37.93h72.16c19.27,0,46.09,20.53,46.09,51.37,0,30.08-27,50.47-46.09,50.47ZM420.53,0V178.46H530.2c70.28,0,100.36-49.05,100.36-89.2S600.48,0,530.2,0Z"/><rect class="cls-2" x="638.92" width="48.74" height="178.47"/><polygon class="cls-2" points="689 85.31 780.7 0 845.25 0 749.12 85.31 850.39 178.47 782.97 178.47 689 85.31"/></g></g></svg>