<svg xmlns="http://www.w3.org/2000/svg" width="148.183" height="85.916"><path d="m103.765.001-2.956 10.852a16.1 16.1 0 0 1-8.345 31.1l-2.919 10.889A27.36 27.36 0 0 0 103.765.001Zm-7.147 15.155a11.245 11.245 0 1 0 11.263 11.263 11.266 11.266 0 0 0-11.263-11.264Zm41.948.037-10.852 2.881a32.5 32.5 0 0 1 1.085 8.344 32.2 32.2 0 0 1-54.97 22.714l-7.933 7.97a43.4 43.4 0 0 0 72.669-41.91Zm-.15 35.324a48.284 48.284 0 0 1-83.558.112l-9.766 5.65a59.569 59.569 0 0 0 103.092-.15Z" fill="#00cc7e"/><path d="M0 7.334v36h4.565V26.867h12.648v16.465h4.565v-36h-4.565v15.569H4.565V7.334Zm28.14 0v36h4.565V26.867h12.573v-3.966H32.705v-11.6h13.289V7.334Zm21.666 0V30.16c0 9.979 3.706 13.92 11.338 13.92s11.3-3.941 11.3-13.92V7.334h-4.565v23.051c0 7.884-2.395 9.879-6.736 9.879s-6.736-2-6.736-9.879V7.334Z" fill="#fff"/></svg>