<?xml version="1.0" encoding="UTF-8" standalone="no"?>
<!DOCTYPE svg PUBLIC "-//W3C//DTD SVG 1.1//EN" "http://www.w3.org/Graphics/SVG/1.1/DTD/svg11.dtd">
<svg width="100%" height="100%" viewBox="0 0 149 86" version="1.1" xmlns="http://www.w3.org/2000/svg" xmlns:xlink="http://www.w3.org/1999/xlink" xml:space="preserve" xmlns:serif="http://www.serif.com/" style="fill-rule:evenodd;clip-rule:evenodd;stroke-linejoin:round;stroke-miterlimit:2;">
    <path d="M103.765,0.001L100.809,10.853C107.823,12.735 112.737,19.141 112.737,26.403C112.737,35.235 105.469,42.503 96.636,42.503C95.228,42.503 93.825,42.318 92.464,41.953L89.545,52.842C91.863,53.466 94.254,53.782 96.655,53.782C111.665,53.782 124.015,41.431 124.015,26.421C124.015,14.087 115.675,3.206 103.765,0.001ZM96.618,15.156C90.456,15.166 85.391,20.239 85.391,26.401C85.391,32.57 90.467,37.646 96.636,37.646C102.798,37.646 107.871,32.581 107.881,26.419C107.88,20.241 102.796,15.157 96.618,15.155L96.618,15.156ZM138.566,15.193L127.714,18.074C128.436,20.797 128.8,23.601 128.799,26.418C128.77,44.062 114.243,58.564 96.599,58.564C88.062,58.564 79.865,55.169 73.829,49.132L65.896,57.102C74.038,65.285 85.118,69.891 96.662,69.891C120.47,69.891 140.062,50.299 140.062,26.491C140.062,22.675 139.558,18.876 138.565,15.192L138.566,15.193ZM138.416,50.517C129.801,65.434 113.831,74.653 96.605,74.653C79.424,74.653 63.49,65.483 54.858,50.629L45.092,56.279C55.742,74.604 75.4,85.916 96.595,85.916C117.851,85.916 137.557,74.538 148.184,56.129L138.416,50.517Z" style="fill:rgb(0,204,126);fill-rule:nonzero;"/>
    <path d="M0,7.334L0,43.334L4.565,43.334L4.565,26.867L17.213,26.867L17.213,43.332L21.778,43.332L21.778,7.332L17.213,7.332L17.213,22.901L4.565,22.901L4.565,7.334L0,7.334ZM28.14,7.334L28.14,43.334L32.705,43.334L32.705,26.867L45.278,26.867L45.278,22.901L32.705,22.901L32.705,11.301L45.994,11.301L45.994,7.334L28.14,7.334ZM49.806,7.334L49.806,30.16C49.806,40.139 53.512,44.08 61.144,44.08C68.776,44.08 72.444,40.139 72.444,30.16L72.444,7.334L67.879,7.334L67.879,30.385C67.879,38.269 65.484,40.264 61.143,40.264C56.802,40.264 54.407,38.264 54.407,30.385L54.407,7.334L49.806,7.334Z" style="fill-rule:nonzero;"/>
</svg>
