<svg xmlns="http://www.w3.org/2000/svg" xmlns:xlink="http://www.w3.org/1999/xlink" width="500" zoomAndPan="magnify" viewBox="0 0 375 374.999991" height="500" preserveAspectRatio="xMidYMid meet" version="1.0"><defs><g/><clipPath id="0a45e43426"><path d="M 90.585938 90.585938 L 283.335938 90.585938 L 283.335938 283.335938 L 90.585938 283.335938 Z M 90.585938 90.585938 " clip-rule="nonzero"/></clipPath></defs><g clip-path="url(#0a45e43426)"><path fill="#545454" d="M 186.8125 283.042969 C 133.753906 283.042969 90.585938 239.875 90.585938 186.8125 C 90.585938 133.753906 133.753906 90.585938 186.8125 90.585938 C 239.875 90.585938 283.042969 133.753906 283.042969 186.8125 C 283.042969 239.875 239.875 283.042969 186.8125 283.042969 Z M 186.8125 92.289062 C 134.691406 92.289062 92.289062 134.691406 92.289062 186.8125 C 92.289062 238.933594 134.691406 281.335938 186.8125 281.335938 C 238.933594 281.335938 281.335938 238.933594 281.335938 186.8125 C 281.335938 134.691406 238.933594 92.289062 186.8125 92.289062 Z M 186.8125 92.289062 " fill-opacity="1" fill-rule="nonzero"/></g><g fill="#545454" fill-opacity="1"><g transform="translate(123.096573, 214.124986)"><g><path d="M 82.453125 -0.921875 L 83.921875 -0.921875 L 83.921875 0 L 64.03125 0 L 64.03125 -0.828125 L 65.40625 -0.828125 C 66.445312 -0.828125 67.332031 -1.238281 68.0625 -2.0625 C 68.800781 -2.882812 69.109375 -3.785156 68.984375 -4.765625 L 64.859375 -50.84375 L 45.625 -8.0625 C 43.914062 -4.332031 42.875 -1.21875 42.5 1.28125 L 41.59375 1.28125 L 18.140625 -49.5625 L 14.203125 -4.765625 C 14.078125 -3.785156 14.378906 -2.882812 15.109375 -2.0625 C 15.847656 -1.238281 16.707031 -0.828125 17.6875 -0.828125 L 19.140625 -0.828125 L 19.140625 0 L 1.375 0 L 1.375 -0.921875 L 2.84375 -0.921875 C 4.550781 -0.921875 6.03125 -1.4375 7.28125 -2.46875 C 8.53125 -3.507812 9.28125 -4.914062 9.53125 -6.6875 L 16.390625 -65.40625 L 17.3125 -65.40625 L 42.875 -10.171875 L 67.875 -65.40625 L 68.703125 -65.40625 L 75.765625 -6.6875 C 76.066406 -4.238281 77.285156 -2.53125 79.421875 -1.5625 C 80.335938 -1.132812 81.347656 -0.921875 82.453125 -0.921875 Z M 82.453125 -0.921875 "/></g></g></g><g fill="#545454" fill-opacity="1"><g transform="translate(208.38127, 214.124986)"><g><path d="M 5.59375 -3.75 C 5.40625 -4.601562 5.3125 -6.253906 5.3125 -8.703125 C 5.3125 -11.148438 5.769531 -13.742188 6.6875 -16.484375 L 7.515625 -16.484375 C 7.453125 -15.816406 7.421875 -15.144531 7.421875 -14.46875 C 7.421875 -10.75 8.550781 -7.648438 10.8125 -5.171875 C 13.070312 -2.703125 16.0625 -1.46875 19.78125 -1.46875 C 23.632812 -1.46875 26.796875 -2.625 29.265625 -4.9375 C 31.742188 -7.257812 32.984375 -10.175781 32.984375 -13.6875 C 32.984375 -17.207031 31.789062 -20.066406 29.40625 -22.265625 L 11.8125 -38.5625 C 8.519531 -41.613281 6.875 -45.304688 6.875 -49.640625 C 6.875 -53.984375 8.320312 -57.695312 11.21875 -60.78125 C 14.125 -63.863281 18.050781 -65.40625 23 -65.40625 C 25.3125 -65.40625 27.9375 -65.101562 30.875 -64.5 L 34.4375 -64.5 L 34.4375 -53.21875 L 33.625 -53.21875 C 33.625 -56.09375 32.628906 -58.382812 30.640625 -60.09375 C 28.660156 -61.800781 26.113281 -62.65625 23 -62.65625 C 19.882812 -62.65625 17.269531 -61.617188 15.15625 -59.546875 C 13.050781 -57.472656 12 -54.878906 12 -51.765625 C 12 -48.648438 13.222656 -45.960938 15.671875 -43.703125 L 33.71875 -27.03125 C 36.769531 -24.21875 38.296875 -20.367188 38.296875 -15.484375 C 38.296875 -10.597656 36.738281 -6.582031 33.625 -3.4375 C 30.507812 -0.289062 26.351562 1.28125 21.15625 1.28125 C 18.46875 1.28125 15.613281 0.867188 12.59375 0.046875 C 9.570312 -0.773438 7.238281 -2.039062 5.59375 -3.75 Z M 5.59375 -3.75 "/></g></g></g></svg>